<?xml version="1.0" encoding="UTF-8" ?>
<!DOCTYPE svg PUBLIC "-//W3C//DTD SVG 1.1//EN" "http://www.w3.org/Graphics/SVG/1.1/DTD/svg11.dtd">
<svg width="358pt" height="612pt" viewBox="0 0 358 612" version="1.1" xmlns="http://www.w3.org/2000/svg">
<path fill="#fcfdfd" d=" M 0.00 0.00 L 49.43 0.00 C 34.60 0.86 20.31 8.23 11.18 19.97 C 4.51 28.31 0.78 38.78 0.00 49.39 L 0.00 0.00 Z" />
<path fill="#242b33" d=" M 49.43 0.00 L 308.58 0.00 C 322.28 0.81 335.54 7.12 344.66 17.39 C 352.60 26.16 357.23 37.69 358.00 49.46 L 358.00 562.58 C 357.09 577.42 349.76 591.83 337.91 600.89 C 329.61 607.54 319.20 611.28 308.62 612.00 L 49.38 612.00 C 35.46 611.17 22.00 604.64 12.87 594.09 C 5.17 585.37 0.76 574.00 0.00 562.44 L 0.00 49.39 C 0.78 38.78 4.51 28.31 11.18 19.97 C 20.31 8.23 34.60 0.86 49.43 0.00 Z" />
<path fill="#fcfdfd" d=" M 308.58 0.00 L 358.00 0.00 L 358.00 49.46 C 357.23 37.69 352.60 26.16 344.66 17.39 C 335.54 7.12 322.28 0.81 308.58 0.00 Z" />
<path fill="#fcfdfd" d=" M 20.00 49.03 C 21.22 33.00 35.95 19.56 52.04 19.84 C 136.03 19.77 220.01 19.84 304.00 19.81 C 310.88 19.63 317.90 21.30 323.62 25.21 C 332.24 30.80 337.87 40.73 338.14 51.01 C 338.24 62.17 338.08 73.34 338.22 84.50 C 288.79 84.73 239.35 84.53 189.92 84.60 C 133.20 84.52 76.48 84.76 19.76 84.48 C 20.03 72.67 19.57 60.84 20.00 49.03 Z" />
<path fill="#242b33" d=" M 145.41 42.49 C 166.92 41.96 188.49 42.40 210.02 42.27 C 214.77 41.99 219.48 45.37 220.37 50.11 C 221.82 55.88 217.00 62.12 211.03 62.09 C 190.04 62.18 169.04 62.10 148.04 62.13 C 143.12 62.50 138.36 58.86 137.56 53.98 C 136.45 48.84 140.25 43.36 145.41 42.49 Z" />
<path fill="#fcfdfd" d=" M 19.98 104.32 C 125.32 104.51 230.67 104.33 336.01 104.41 C 336.58 104.45 337.70 104.53 338.27 104.56 C 337.98 238.92 338.34 373.29 338.08 507.64 C 231.99 507.48 125.88 507.75 19.79 507.51 C 19.89 413.01 19.80 318.51 19.83 224.01 C 19.93 184.12 19.64 144.21 19.98 104.32 Z" />
<path fill="#242b33" d=" M 62.38 211.53 C 68.34 211.42 74.31 211.39 80.26 211.56 C 92.54 212.16 103.99 220.82 107.76 232.54 C 166.82 232.85 225.90 232.56 284.97 232.69 C 290.68 232.59 295.46 238.33 294.50 243.93 C 293.92 248.98 289.06 252.74 284.07 252.51 C 283.86 271.03 284.14 289.56 283.93 308.08 C 283.27 323.48 269.47 336.84 254.05 337.03 C 215.17 337.08 176.28 337.07 137.40 337.03 C 138.86 342.35 140.24 347.71 141.92 352.97 C 144.41 355.17 147.32 356.94 149.50 359.52 C 179.75 359.53 210.00 359.57 240.25 359.50 C 250.02 348.01 268.41 345.53 280.78 354.21 C 292.57 361.81 297.76 377.87 292.60 390.93 C 288.48 402.33 277.12 410.63 264.99 411.03 C 253.05 411.76 241.16 404.76 235.86 394.06 C 233.49 389.53 232.49 384.41 232.47 379.33 C 207.39 379.32 182.31 379.34 157.24 379.32 C 157.90 395.49 144.16 410.47 127.96 411.01 C 112.28 412.31 97.14 399.80 95.41 384.17 C 92.85 368.38 104.59 352.30 120.25 349.49 C 109.98 312.97 99.68 276.45 89.37 239.94 C 88.29 235.49 84.35 231.86 79.75 231.44 C 73.87 231.11 67.96 231.54 62.07 231.24 C 57.27 231.07 53.05 226.85 52.89 222.05 C 52.33 216.69 57.00 211.55 62.38 211.53 Z" />
<path fill="#fcfdfd" d=" M 113.52 252.47 C 163.76 252.48 213.99 252.44 264.23 252.49 C 264.20 270.30 264.27 288.10 264.20 305.90 C 264.42 311.97 258.95 317.39 252.90 317.21 C 212.53 317.32 172.15 317.23 131.78 317.26 C 125.67 295.67 119.59 274.07 113.52 252.47 Z" />
<path fill="#fcfdfd" d=" M 122.33 369.46 C 128.57 366.96 136.22 371.39 137.20 378.02 C 138.54 384.31 133.43 390.95 127.00 391.19 C 121.47 391.80 116.09 387.54 115.15 382.12 C 114.03 376.88 117.27 371.21 122.33 369.46 Z" />
<path fill="#fcfdfd" d=" M 260.21 369.29 C 266.41 367.16 273.66 371.63 274.61 378.09 C 276.03 384.86 269.90 391.85 262.98 391.21 C 256.81 391.10 251.62 385.09 252.37 378.97 C 252.73 374.55 255.98 370.58 260.21 369.29 Z" />
<path fill="#fcfdfd" d=" M 19.79 527.48 C 78.18 527.29 136.58 527.45 194.98 527.40 C 242.73 527.48 290.49 527.24 338.23 527.52 C 338.06 538.66 338.25 549.81 338.14 560.96 C 337.88 571.25 332.25 581.19 323.62 586.79 C 318.17 590.52 311.52 592.26 304.95 592.18 C 221.63 592.21 138.32 592.17 55.00 592.20 C 49.44 592.31 43.76 591.65 38.69 589.22 C 27.80 584.31 20.16 572.98 19.86 561.01 C 19.76 549.83 19.91 538.66 19.79 527.48 Z" />
<path fill="#242b33" d=" M 174.19 541.24 C 180.17 539.67 186.86 541.20 191.51 545.30 C 196.56 549.57 199.06 556.59 197.86 563.09 C 196.73 569.93 191.56 575.89 184.96 577.99 C 178.97 580.02 172.03 578.76 167.11 574.80 C 162.10 570.88 159.28 564.37 159.93 558.03 C 160.53 550.17 166.55 543.15 174.19 541.24 Z" />
<path fill="#fcfdfd" d=" M 0.00 562.44 C 0.76 574.00 5.17 585.37 12.87 594.09 C 22.00 604.64 35.46 611.17 49.38 612.00 L 0.00 612.00 L 0.00 562.44 Z" />
<path fill="#fcfdfd" d=" M 337.91 600.89 C 349.76 591.83 357.09 577.42 358.00 562.58 L 358.00 612.00 L 308.62 612.00 C 319.20 611.28 329.61 607.54 337.91 600.89 Z" />
</svg>
