<?xml version="1.0" encoding="UTF-8" ?>
<!DOCTYPE svg PUBLIC "-//W3C//DTD SVG 1.1//EN" "http://www.w3.org/Graphics/SVG/1.1/DTD/svg11.dtd">
<svg width="358pt" height="612pt" viewBox="0 0 358 612" version="1.1" xmlns="http://www.w3.org/2000/svg">
<path fill="#fdfefe" d=" M 0.00 0.00 L 49.64 0.00 C 35.17 0.76 21.18 7.74 12.00 18.95 C 4.82 27.50 0.76 38.43 0.00 49.52 L 0.00 0.00 Z" />
<path fill="#36cdcd" d=" M 49.64 0.00 L 308.46 0.00 C 322.19 0.77 335.49 7.09 344.65 17.37 C 352.63 26.18 357.29 37.79 358.00 49.63 L 358.00 562.45 C 357.14 577.35 349.79 591.81 337.90 600.91 C 329.54 607.58 319.05 611.35 308.40 612.00 L 49.50 612.00 C 35.53 611.21 22.02 604.67 12.87 594.08 C 5.14 585.34 0.72 573.92 0.00 562.32 L 0.00 49.52 C 0.76 38.43 4.82 27.50 12.00 18.95 C 21.18 7.74 35.17 0.76 49.64 0.00 Z" />
<path fill="#fdfefe" d=" M 308.46 0.00 L 358.00 0.00 L 358.00 49.63 C 357.29 37.79 352.63 26.18 344.65 17.37 C 335.49 7.09 322.19 0.77 308.46 0.00 Z" />
<path fill="#fdfefe" d=" M 26.11 33.09 C 32.19 24.60 42.59 19.56 53.01 19.82 C 137.01 19.80 221.02 19.80 305.03 19.82 C 315.43 19.57 325.80 24.60 331.88 33.07 C 335.92 38.50 338.15 45.23 338.16 52.00 C 338.17 62.86 338.16 73.72 338.16 84.58 C 232.11 84.68 126.05 84.49 20.00 84.67 C 19.61 74.12 19.96 63.55 19.82 53.00 C 19.68 45.91 21.86 38.78 26.11 33.09 Z" />
<path fill="#36cdcd" d=" M 146.31 42.36 C 167.56 42.12 188.82 42.31 210.08 42.27 C 215.51 41.92 220.67 46.52 220.60 52.03 C 220.80 57.23 216.32 62.06 211.08 62.08 C 190.06 62.18 169.04 62.10 148.02 62.13 C 143.13 62.50 138.38 58.87 137.56 54.02 C 136.34 48.54 140.74 42.74 146.31 42.36 Z" />
<path fill="#fdfefe" d=" M 19.86 104.40 C 125.96 104.40 232.05 104.39 338.15 104.41 C 338.18 238.80 338.18 373.20 338.15 507.59 C 232.05 507.60 125.94 507.62 19.84 507.58 C 19.85 373.19 19.80 238.80 19.86 104.40 Z" />
<path fill="#36cdcd" d=" M 52.89 222.07 C 52.34 216.80 56.84 211.70 62.11 211.55 C 70.03 211.65 78.11 210.73 85.91 212.42 C 95.95 214.89 104.54 222.67 107.76 232.53 C 164.81 232.86 221.87 232.57 278.93 232.67 C 282.77 232.79 287.13 231.96 290.43 234.48 C 294.90 237.50 295.96 244.30 292.59 248.53 C 290.63 251.26 287.27 252.46 284.01 252.58 C 283.98 269.07 284.00 285.56 284.00 302.05 C 284.11 306.85 283.98 311.76 282.26 316.31 C 278.11 328.42 265.90 337.22 253.05 337.06 C 214.49 337.07 175.93 337.05 137.37 337.06 C 138.90 342.36 140.23 347.73 141.92 352.98 C 144.43 355.17 147.31 356.97 149.53 359.52 C 179.76 359.52 209.99 359.57 240.22 359.50 C 250.19 347.80 269.08 345.46 281.45 354.68 C 293.40 362.78 298.02 379.72 291.84 392.78 C 288.17 401.07 280.64 407.53 271.89 409.92 C 262.79 412.55 252.55 410.62 245.00 404.91 C 237.00 399.05 232.29 389.22 232.45 379.33 C 207.39 379.32 182.32 379.34 157.25 379.32 C 157.32 386.80 154.78 394.27 149.92 399.99 C 142.56 408.92 129.97 413.08 118.75 410.17 C 104.46 406.94 93.92 392.53 95.19 377.93 C 95.89 364.19 106.78 352.03 120.24 349.48 C 109.97 312.94 99.66 276.40 89.35 239.87 C 88.25 235.44 84.31 231.85 79.73 231.44 C 73.84 231.11 67.92 231.55 62.03 231.24 C 57.25 231.04 53.05 226.84 52.89 222.07 Z" />
<path fill="#fdfefe" d=" M 113.53 252.48 C 163.76 252.45 213.99 252.46 264.22 252.48 C 264.22 270.30 264.26 288.11 264.20 305.93 C 264.41 311.97 258.97 317.36 252.94 317.21 C 212.56 317.32 172.17 317.23 131.79 317.25 C 125.67 295.67 119.59 274.08 113.53 252.48 Z" />
<path fill="#fdfefe" d=" M 122.33 369.46 C 128.57 366.96 136.20 371.39 137.20 378.01 C 138.55 384.29 133.45 390.93 127.02 391.19 C 121.48 391.82 116.08 387.54 115.14 382.10 C 114.04 376.87 117.28 371.20 122.33 369.46 Z" />
<path fill="#fdfefe" d=" M 260.23 369.29 C 266.76 367.03 274.32 372.15 274.73 379.01 C 275.58 385.91 268.84 392.40 261.95 391.11 C 255.09 390.39 250.37 382.45 253.05 376.07 C 254.22 372.86 256.97 370.30 260.23 369.29 Z" />
<path fill="#fdfefe" d=" M 19.84 527.42 C 77.54 527.37 135.24 527.41 192.95 527.40 C 241.37 527.51 289.82 527.19 338.23 527.56 C 337.97 539.37 338.42 551.19 338.00 562.99 C 336.78 579.01 322.03 592.46 305.95 592.16 C 221.97 592.24 137.99 592.17 54.01 592.19 C 46.84 592.39 39.52 590.56 33.67 586.32 C 25.18 580.47 19.83 570.36 19.84 560.04 C 19.83 549.17 19.83 538.29 19.84 527.42 Z" />
<path fill="#36cdcd" d=" M 173.36 541.47 C 178.92 539.76 185.24 540.71 189.98 544.11 C 195.38 547.82 198.59 554.47 198.11 561.02 C 197.73 568.13 193.00 574.75 186.42 577.45 C 180.58 579.97 173.52 579.26 168.29 575.66 C 162.87 572.04 159.52 565.53 159.87 559.00 C 160.05 551.07 165.79 543.73 173.36 541.47 Z" />
<path fill="#fdfefe" d=" M 0.00 562.32 C 0.72 573.92 5.14 585.34 12.87 594.08 C 22.02 604.67 35.53 611.21 49.50 612.00 L 0.00 612.00 L 0.00 562.32 Z" />
<path fill="#fdfefe" d=" M 337.90 600.91 C 349.79 591.81 357.14 577.35 358.00 562.45 L 358.00 612.00 L 308.40 612.00 C 319.05 611.35 329.54 607.58 337.90 600.91 Z" />
</svg>
